<mxfile host="app.diagrams.net" agent="Mozilla/5.0 (Windows NT 10.0; Win64; x64; rv:128.0) Gecko/20100101 Firefox/128.0" version="26.2.14">
  <diagram name="第 1 页" id="oNz6BJVOKftq_mc2yhUN">
    <mxGraphModel dx="293" dy="1597" grid="1" gridSize="10" guides="1" tooltips="1" connect="1" arrows="1" fold="1" page="1" pageScale="1" pageWidth="827" pageHeight="1169" math="0" shadow="0">
      <root>
        <mxCell id="0" />
        <mxCell id="1" parent="0" />
        <mxCell id="2" value="模块开始" style="whiteSpace=wrap;strokeWidth=2;fontFamily=宋体;fontSize=16;" parent="1" vertex="1">
          <mxGeometry x="1150" y="240" width="124" height="54" as="geometry" />
        </mxCell>
        <mxCell id="zro53bZervO8bTm3QGK2-52" value="" style="edgeStyle=orthogonalEdgeStyle;rounded=0;orthogonalLoop=1;jettySize=auto;html=1;" parent="1" source="3" target="4" edge="1">
          <mxGeometry relative="1" as="geometry" />
        </mxCell>
        <mxCell id="3" value="生成健康数据图表" style="whiteSpace=wrap;strokeWidth=2;fontFamily=宋体;fontSize=16;" parent="1" vertex="1">
          <mxGeometry x="1118" y="344" width="188" height="54" as="geometry" />
        </mxCell>
        <mxCell id="4" value="后端返回json数据" style="whiteSpace=wrap;strokeWidth=2;fontFamily=宋体;fontSize=16;" parent="1" vertex="1">
          <mxGeometry x="1110" y="466" width="204" height="54" as="geometry" />
        </mxCell>
        <mxCell id="6" value="生成图表" style="whiteSpace=wrap;strokeWidth=2;fontFamily=宋体;fontSize=16;" parent="1" vertex="1">
          <mxGeometry x="1150" y="595" width="124" height="54" as="geometry" />
        </mxCell>
        <mxCell id="28" value="" style="curved=1;startArrow=none;endArrow=block;exitX=0.5;exitY=1;entryX=0.5;entryY=0;" parent="1" source="2" target="3" edge="1">
          <mxGeometry relative="1" as="geometry">
            <Array as="points" />
          </mxGeometry>
        </mxCell>
        <mxCell id="31" value="使用 ECharts" style="curved=1;startArrow=none;endArrow=block;exitX=0.5;exitY=1;entryX=0.5;entryY=0;fontFamily=宋体;" parent="1" source="4" target="6" edge="1">
          <mxGeometry relative="1" as="geometry">
            <Array as="points" />
          </mxGeometry>
        </mxCell>
      </root>
    </mxGraphModel>
  </diagram>
</mxfile>
